<?xml version="1.0" encoding="utf-8"?>
<!-- Generator: Adobe Illustrator 25.2.1, SVG Export Plug-In . SVG Version: 6.00 Build 0)  -->
<svg version="1.1" id="Laag_1" xmlns="http://www.w3.org/2000/svg" xmlns:xlink="http://www.w3.org/1999/xlink" x="0px" y="0px"
	 viewBox="0 0 338.4 414.2" style="enable-background:new 0 0 338.4 414.2;" xml:space="preserve">
<style type="text/css">
	.st0{clip-path:url(#SVGID_2_);}
	.st1{fill:#F39122;}
	.st2{fill:#75509C;}
	.st3{fill:#283583;}
</style>
<g>
	<defs>
		<rect id="SVGID_1_" x="0" width="338.4" height="414.2"/>
	</defs>
	<clipPath id="SVGID_2_">
		<use xlink:href="#SVGID_1_"  style="overflow:visible;"/>
	</clipPath>
	<g class="st0">
		<path class="st1" d="M332.3,130.5L267,71.7c-2.2-2.4-7.4-4.4-11.5-4.6c-2.5-0.6-5.1-0.6-7.6,0l-86,18.3
			c-10,2.1-16.3,11.9-14.2,21.9s11.9,16.3,21.9,14.2l0,0l53.9-11.5c13.8-2.9,33.4,2.3,43.9,11.8l40.2,36.2c7.7,6.6,19.4,5.8,26-2
			C340.1,148.5,339.5,137.3,332.3,130.5"/>
		<path class="st1" d="M263.5,60.8c16.8,0,30.4-13.6,30.4-30.4S280.3,0,263.5,0c-16.8,0-30.4,13.6-30.4,30.4
			C233.1,47.2,246.7,60.8,263.5,60.8C263.5,60.8,263.5,60.8,263.5,60.8"/>
		<path class="st2" d="M157.5,329.6l85.6,19.8c3.1,1,8.6,0.3,12.3-1.5c2.5-0.7,4.7-2,6.6-3.7l66.3-57.7c7.7-6.7,8.5-18.3,1.8-26
			c-6.7-7.7-18.3-8.5-26-1.8l-41.6,36.1c-10.6,9.2-30.4,14.2-44.1,11l-52.7-12.2c-9.9-2.3-19.8,3.9-22.1,13.8
			C141.3,317.4,147.5,327.3,157.5,329.6"/>
		<path class="st2" d="M251.4,357.2c-14.7,8.1-20,26.6-11.9,41.3c8.1,14.7,26.6,20,41.3,11.9c14.7-8.1,20-26.6,11.9-41.3
			c0,0,0,0,0,0C284.6,354.4,266.1,349.1,251.4,357.2"/>
		<path class="st3" d="M112.9,119.7l-43.3,76.5c-1.8,2.7-2.7,8.1-2,12.2c0,2.6,0.6,5.1,1.6,7.4l36.4,80c4.4,9.2,15.4,13,24.6,8.6
			c8.9-4.3,12.9-14.8,8.9-23.9l-22.8-50.1c-5.9-12.8-5-33.2,2-45.4l26.6-47.1c4.9-9,1.5-20.2-7.4-25
			C128.9,108.1,118,111.1,112.9,119.7"/>
		<path class="st3" d="M60.5,196.2c-2.2-16.6-17.5-28.4-34.1-26.2s-28.4,17.5-26.2,34.1c2.2,16.6,17.5,28.4,34.1,26.2
			C51,228.1,62.7,212.9,60.5,196.2C60.6,196.2,60.6,196.2,60.5,196.2"/>
	</g>
</g>
</svg>
