<?xml version="1.0" encoding="utf-8"?>
<!-- Generator: Adobe Illustrator 25.2.1, SVG Export Plug-In . SVG Version: 6.00 Build 0)  -->
<svg version="1.1" id="Laag_1" xmlns="http://www.w3.org/2000/svg" xmlns:xlink="http://www.w3.org/1999/xlink" x="0px" y="0px"
	 viewBox="0 0 338.4 414.2" style="enable-background:new 0 0 338.4 414.2;" xml:space="preserve">
<style type="text/css">
	.st0{clip-path:url(#SVGID_2_);}
	.st1{fill:#FFFFFF;}
</style>
<g>
	<defs>
		<rect id="SVGID_1_" width="338.4" height="414.2"/>
	</defs>
	<use xlink:href="#SVGID_1_"  style="overflow:visible;fill:#FFFFFF;"/>
	<clipPath id="SVGID_2_">
		<use xlink:href="#SVGID_1_"  style="overflow:visible;"/>
	</clipPath>
	<g class="st0">
		<path class="st1" d="M294.4,219.4c-3.1,0-5.6-2.4-5.6-6.2s2.5-6.2,5.6-6.2s5.6,2.4,5.6,6.2S297.5,219.4,294.4,219.4 M294.4,226.2
			c8.1,0,14-5.5,14-13s-5.9-13-14-13s-14,5.5-14,13S286.3,226.2,294.4,226.2 M263.2,213h-3v-5.8h3c2.3,0,3.4,1.1,3.4,2.9
			S265.5,213.1,263.2,213 M263.8,200.8h-12v24.9h8.4v-6.1h3.6c6.9,0,11.3-3.6,11.3-9.4S270.7,200.8,263.8,200.8 M236.4,200.8v11.3
			l-9.5-11.3H220v24.9h8.2v-11.3l9.4,11.3h6.9v-24.9L236.4,200.8z M204.4,225.6h8.4v-24.9h-8.4V225.6z M189.6,210.1
			c0,1.8-1.1,2.9-3.4,2.9h-3.1v-5.8h3.1C188.5,207.2,189.6,208.3,189.6,210.1 M189.6,225.6h9l-5.2-7.7c3-1.4,4.8-4.5,4.7-7.8
			c0-5.8-4.4-9.4-11.3-9.4h-12v24.9h8.4v-6.2h2.3L189.6,225.6z M158,226.2c4.9,0,8.7-1.8,11.1-5l-5.2-4.7c-1.2,1.8-3.3,2.9-5.4,2.9
			c-3.5,0-5.8-2.4-5.8-6.2s2.3-6.2,5.8-6.2c2.2,0,4.2,1.1,5.4,2.9l5.3-4.7c-2.5-3.2-6.3-5-11.1-5c-8,0-13.8,5.4-13.8,13
			S150,226.2,158,226.2"/>
		<path class="st1" d="M332.3,130.5L267,71.7c-2.2-2.4-7.4-4.4-11.5-4.6c-2.5-0.6-5.1-0.6-7.6,0l-86,18.3
			c-10,2.1-16.3,11.9-14.2,21.9s11.9,16.3,21.9,14.2l0,0l53.9-11.5c13.8-2.9,33.4,2.3,43.9,11.8l40.2,36.2c7.7,6.6,19.4,5.8,26-2
			C340.1,148.5,339.5,137.3,332.3,130.5"/>
		<path class="st1" d="M263.5,60.8c16.8,0,30.4-13.6,30.4-30.4S280.3,0,263.5,0c-16.8,0-30.4,13.6-30.4,30.4
			C233.1,47.2,246.7,60.8,263.5,60.8C263.5,60.8,263.5,60.8,263.5,60.8"/>
		<path class="st1" d="M157.5,329.6l85.6,19.8c3.1,1,8.6,0.3,12.3-1.5c2.5-0.7,4.7-2,6.6-3.7l66.3-57.7c7.7-6.7,8.5-18.3,1.8-26
			c-6.7-7.7-18.3-8.5-26-1.8l-41.6,36.1c-10.6,9.2-30.4,14.2-44.1,11l-52.7-12.2c-9.9-2.3-19.8,3.9-22.1,13.8
			C141.3,317.4,147.5,327.3,157.5,329.6"/>
		<path class="st1" d="M251.4,357.2c-14.7,8.1-20,26.6-11.9,41.3c8.1,14.7,26.6,20,41.3,11.9c14.7-8.1,20-26.6,11.9-41.3
			c0,0,0,0,0,0C284.6,354.4,266.1,349.1,251.4,357.2"/>
		<path class="st1" d="M112.9,119.7l-43.3,76.5c-1.8,2.7-2.7,8.1-2,12.2c0,2.6,0.6,5.1,1.6,7.4l36.4,80c4.4,9.2,15.4,13,24.6,8.6
			c8.9-4.3,12.9-14.8,8.9-23.9l-22.8-50.1c-5.9-12.8-5-33.2,2-45.4l26.6-47.1c4.9-9,1.5-20.2-7.4-25
			C128.9,108.1,118,111.1,112.9,119.7"/>
		<path class="st1" d="M60.5,196.2c-2.2-16.6-17.5-28.4-34.1-26.2s-28.4,17.5-26.2,34.1c2.2,16.6,17.5,28.4,34.1,26.2
			C51,228.1,62.7,212.9,60.5,196.2C60.6,196.2,60.6,196.2,60.5,196.2"/>
	</g>
</g>
</svg>
