<svg id="Laag_1" data-name="Laag 1" xmlns="http://www.w3.org/2000/svg" xmlns:xlink="http://www.w3.org/1999/xlink" viewBox="0 0 338.43 414.25"><defs><style>.cls-1{fill:none;}.cls-2{clip-path:url(#clip-path);}.cls-3{fill:#243985;}.cls-4{fill:#f39122;}.cls-5{fill:#75509c;}.cls-6{fill:#283583;}</style><clipPath id="clip-path" transform="translate(-98.37 -184.47)"><rect class="cls-1" x="98.37" y="184.47" width="338.43" height="414.25"/></clipPath></defs><g class="cls-2"><path class="cls-3" d="M392.78,403.88c-3.09,0-5.58-2.35-5.58-6.22s2.49-6.22,5.58-6.22,5.58,2.35,5.58,6.22-2.49,6.22-5.58,6.22m0,6.77c8.1,0,14-5.46,14-13s-5.92-13-14-13-14,5.46-14,13,5.92,13,14,13M361.6,397.52h-3.05v-5.83h3.05c2.31,0,3.42,1.1,3.42,2.92s-1.11,2.91-3.42,2.91m.54-12.29h-12v24.86h8.38V404h3.59c6.92,0,11.32-3.62,11.32-9.37s-4.4-9.38-11.32-9.38m-27.38,0v11.29l-9.45-11.29h-6.88v24.86h8.16V398.8L336,410.09h6.89V385.23Zm-31.95,24.86h8.37V385.23h-8.37ZM288,394.61c0,1.81-1.1,2.91-3.41,2.91h-3.06v-5.83h3.06c2.31,0,3.41,1.1,3.41,2.92m0,15.48H297l-5.22-7.67a8.34,8.34,0,0,0,4.69-7.81c0-5.76-4.4-9.38-11.33-9.38h-12v24.86h8.37v-6.25h2.28Zm-31.65.56c4.87,0,8.7-1.77,11.15-5L262.25,401a6.7,6.7,0,0,1-5.43,2.92c-3.48,0-5.82-2.42-5.82-6.22s2.34-6.22,5.82-6.22a6.7,6.7,0,0,1,5.43,2.92l5.29-4.73c-2.45-3.19-6.28-5-11.15-5-8,0-13.84,5.35-13.84,13s5.86,13,13.84,13" transform="translate(-98.37 -184.47)"/><path class="cls-4" d="M430.71,315l-65.32-58.82c-2.23-2.36-7.35-4.43-11.46-4.63a17.45,17.45,0,0,0-7.58,0l-86,18.27a18.44,18.44,0,1,0,7.67,36.08l53.87-11.45c13.78-2.93,33.44,2.34,43.91,11.77L406,342.39A18.45,18.45,0,0,0,430.71,315" transform="translate(-98.37 -184.47)"/><path class="cls-4" d="M361.91,245.27a30.4,30.4,0,1,0-30.41-30.4,30.4,30.4,0,0,0,30.41,30.4" transform="translate(-98.37 -184.47)"/><path class="cls-5" d="M255.82,514.11l85.64,19.77c3.09,1,8.58.32,12.26-1.5a17.61,17.61,0,0,0,6.64-3.67L426.69,471a18.44,18.44,0,0,0-24.2-27.84l-41.57,36.13c-10.63,9.25-30.38,14.17-44.11,11l-52.69-12.16a18.44,18.44,0,1,0-8.3,35.94" transform="translate(-98.37 -184.47)"/><path class="cls-5" d="M349.79,541.72a30.4,30.4,0,1,0,41.32,11.85,30.4,30.4,0,0,0-41.32-11.85" transform="translate(-98.37 -184.47)"/><path class="cls-6" d="M211.26,304.15,168,380.65c-1.82,2.68-2.74,8.14-2,12.18a17.44,17.44,0,0,0,1.64,7.41l36.45,80a18.45,18.45,0,0,0,33.57-15.3l-22.84-50.11c-5.85-12.83-5-33.16,2-45.42l26.63-47.07a18.45,18.45,0,0,0-32.11-18.17" transform="translate(-98.37 -184.47)"/><path class="cls-6" d="M158.92,380.68a30.4,30.4,0,1,0-26.17,34.11,30.4,30.4,0,0,0,26.17-34.11" transform="translate(-98.37 -184.47)"/></g></svg>